# xmcd
# 
# Track frame offsets:
#     150
#     27804
#     46846
#     61103
#     81564
#     104059
#     119856
#     138181
#     155591
#     182987
# 
# Disc length: 2679
# 
# Revision: 7
# Processed by: cddbd v1.5.2PL0 Copyright (c) Steve Scherf et al.
# Submitted via: fre:ac v1.0.31
# 
DISCID=8d0a750a
DTITLE=Ray LaMontagne and the Pariah Dogs - God Willin' and the Creek Don't Rise
DYEAR=2010
DGENRE=11.3-Folk-influenced American Rock
TTITLE0=Repo Man
TTITLE1=New York City's Killing Me
TTITLE2=God Willin' and the Creek Don't Rise
TTITLE3=Beg Steal or Borrow
TTITLE4=Are We Really Through
TTITLE5=This Love Is Over
TTITLE6=Old Before Your Time
TTITLE7=For the Summer
TTITLE8=Like Rock and Roll and Radio
TTITLE9=The Devil's In the Jukebox
EXTD=
EXTT0=
EXTT1=
EXTT2=
EXTT3=
EXTT4=
EXTT5=
EXTT6=
EXTT7=
EXTT8=
EXTT9=
PLAYORDER=
